<svg width="40" height="40" viewBox="0 0 40 40" fill="none" xmlns="http://www.w3.org/2000/svg">
<path d="M24.3969 6.09339C24.4385 5.93343 24.5417 5.79644 24.684 5.7124C24.8263 5.62836 24.9961 5.60411 25.1563 5.64496C27.369 6.22127 29.3879 7.37758 31.0046 8.99454C32.6212 10.6115 33.7772 12.6306 34.3531 14.8434C34.394 15.0033 34.37 15.1729 34.2863 15.3152C34.2026 15.4575 34.0659 15.5609 33.9063 15.6028C33.8554 15.6173 33.8029 15.6246 33.75 15.6246C33.6118 15.6242 33.4776 15.5779 33.3685 15.4931C33.2594 15.4083 33.1814 15.2897 33.1469 15.1559C32.6252 13.1591 31.5809 11.3374 30.1216 9.87804C28.6623 8.41871 26.8405 7.37448 24.8438 6.85277C24.6841 6.81087 24.5475 6.7075 24.4638 6.56522C24.38 6.42295 24.356 6.25333 24.3969 6.09339ZM23.5938 11.8528C25.9375 12.4825 27.5172 14.0621 28.1469 16.4059C28.1814 16.5397 28.2594 16.6583 28.3685 16.7431C28.4776 16.8279 28.6118 16.8742 28.75 16.8746C28.8029 16.8746 28.8554 16.8673 28.9063 16.8528C29.0661 16.8099 29.2024 16.7054 29.2853 16.5622C29.3682 16.4189 29.3909 16.2487 29.3485 16.0887C28.5985 13.2762 26.7156 11.4012 23.9063 10.645C23.7501 10.6148 23.5883 10.6452 23.4539 10.7302C23.3194 10.8151 23.2224 10.9481 23.1825 11.102C23.1427 11.256 23.1631 11.4194 23.2395 11.5589C23.3159 11.6983 23.4426 11.8034 23.5938 11.8528ZM35.6156 27.2778C35.3563 29.2449 34.3895 31.0502 32.8959 32.3563C31.4023 33.6624 29.4841 34.3799 27.5 34.3746C15.4375 34.3746 5.62502 24.5621 5.62502 12.4996C5.62091 10.5163 6.33891 8.59935 7.64491 7.10673C8.95091 5.61412 10.7556 4.64796 12.7219 4.38871C13.1247 4.33973 13.5326 4.42277 13.8842 4.62534C14.2358 4.82791 14.5122 5.13909 14.6719 5.51214L17.9688 12.8778C18.092 13.1634 18.1422 13.4752 18.115 13.785C18.0877 14.0949 17.9838 14.3931 17.8125 14.6528C17.7985 14.6731 17.7844 14.6934 17.7688 14.7121L14.4563 18.6512C14.4043 18.7375 14.3745 18.8353 14.3696 18.9359C14.3647 19.0366 14.3848 19.1368 14.4281 19.2278C15.6531 21.7356 18.2797 24.3418 20.8172 25.5668C20.9088 25.6093 21.0095 25.6286 21.1104 25.6228C21.2112 25.6171 21.3091 25.5866 21.3953 25.534L25.2813 22.234L25.3406 22.1887C25.6007 22.0169 25.8995 21.9127 26.2099 21.8854C26.5204 21.8581 26.8327 21.9087 27.1188 22.0325L34.4969 25.3387C34.8662 25.4994 35.174 25.7747 35.3746 26.124C35.5753 26.4732 35.6582 26.8778 35.611 27.2778H35.6156ZM33.9985 26.4778L26.6172 23.1715C26.5275 23.1339 26.4302 23.1181 26.3332 23.1254C26.2362 23.1327 26.1424 23.163 26.0594 23.2137L22.1875 26.5137L22.1297 26.5575C21.8605 26.7372 21.5493 26.8442 21.2265 26.868C20.9037 26.8918 20.5802 26.8317 20.2875 26.6934C17.475 25.3356 14.6766 22.5559 13.3188 19.7762C13.1791 19.4858 13.1167 19.1643 13.1375 18.8427C13.1583 18.5211 13.2616 18.2103 13.4375 17.9403C13.4516 17.9184 13.4672 17.8996 13.4828 17.8793L16.7938 13.9418C16.8434 13.8574 16.8725 13.7626 16.8787 13.6649C16.885 13.5672 16.8682 13.4694 16.8297 13.3793L13.5266 6.01371C13.48 5.89952 13.4008 5.80166 13.2987 5.73243C13.1967 5.6632 13.0764 5.6257 12.9531 5.62464C12.9282 5.62309 12.9031 5.62309 12.8781 5.62464C11.2129 5.84529 9.68506 6.66488 8.58022 7.93018C7.47538 9.19549 6.8692 10.8199 6.87502 12.4996C6.87502 23.8715 16.1281 33.1246 27.5 33.1246C29.1798 33.1305 30.8042 32.5243 32.0695 31.4194C33.3348 30.3146 34.1544 28.7867 34.375 27.1215C34.3894 26.9874 34.3601 26.8523 34.2914 26.7363C34.2226 26.6203 34.1183 26.5296 33.9938 26.4778H33.9985Z" fill="#ED3E2E"/>
</svg>
