<svg width="40" height="40" viewBox="0 0 40 40" fill="none" xmlns="http://www.w3.org/2000/svg">
<path d="M20 13.125C18.6403 13.125 17.311 13.5282 16.1805 14.2836C15.0499 15.0391 14.1687 16.1128 13.6483 17.3691C13.128 18.6253 12.9918 20.0076 13.2571 21.3412C13.5224 22.6749 14.1772 23.8999 15.1386 24.8614C16.1001 25.8228 17.3251 26.4776 18.6588 26.7429C19.9924 27.0082 21.3747 26.872 22.6309 26.3517C23.8872 25.8313 24.9609 24.9501 25.7164 23.8195C26.4718 22.689 26.875 21.3597 26.875 20C26.8729 18.1773 26.1479 16.4298 24.8591 15.1409C23.5702 13.8521 21.8227 13.1271 20 13.125ZM20 25.625C18.8875 25.625 17.7999 25.2951 16.8749 24.677C15.9499 24.0589 15.2289 23.1804 14.8032 22.1526C14.3774 21.1248 14.266 19.9938 14.4831 18.9026C14.7001 17.8115 15.2359 16.8092 16.0225 16.0225C16.8092 15.2359 17.8115 14.7001 18.9026 14.4831C19.9938 14.266 21.1248 14.3774 22.1526 14.8032C23.1804 15.2289 24.0589 15.9499 24.677 16.8749C25.2951 17.7999 25.625 18.8875 25.625 20C25.625 21.4918 25.0324 22.9226 23.9775 23.9775C22.9226 25.0324 21.4918 25.625 20 25.625ZM27.5 4.375H12.5C10.3459 4.37748 8.28069 5.2343 6.7575 6.7575C5.2343 8.28069 4.37748 10.3459 4.375 12.5V27.5C4.37748 29.6541 5.2343 31.7193 6.7575 33.2425C8.28069 34.7657 10.3459 35.6225 12.5 35.625H27.5C29.6541 35.6225 31.7193 34.7657 33.2425 33.2425C34.7657 31.7193 35.6225 29.6541 35.625 27.5V12.5C35.6225 10.3459 34.7657 8.28069 33.2425 6.7575C31.7193 5.2343 29.6541 4.37748 27.5 4.375ZM34.375 27.5C34.3729 29.3227 33.6479 31.0702 32.3591 32.3591C31.0702 33.6479 29.3227 34.3729 27.5 34.375H12.5C10.6773 34.3729 8.92979 33.6479 7.64092 32.3591C6.35206 31.0702 5.62707 29.3227 5.625 27.5V12.5C5.62707 10.6773 6.35206 8.92979 7.64092 7.64092C8.92979 6.35206 10.6773 5.62707 12.5 5.625H27.5C29.3227 5.62707 31.0702 6.35206 32.3591 7.64092C33.6479 8.92979 34.3729 10.6773 34.375 12.5V27.5ZM29.375 11.875C29.375 12.1222 29.3017 12.3639 29.1643 12.5695C29.027 12.775 28.8318 12.9352 28.6034 13.0299C28.3749 13.1245 28.1236 13.1492 27.8811 13.101C27.6387 13.0528 27.4159 12.9337 27.2411 12.7589C27.0663 12.5841 26.9473 12.3613 26.899 12.1189C26.8508 11.8764 26.8755 11.6251 26.9701 11.3966C27.0648 11.1682 27.225 10.973 27.4305 10.8357C27.6361 10.6983 27.8778 10.625 28.125 10.625C28.4565 10.625 28.7745 10.7567 29.0089 10.9911C29.2433 11.2255 29.375 11.5435 29.375 11.875Z" fill="#ED3E2E"/>
</svg>
