<svg width="173" height="348" viewBox="0 0 173 348" fill="none" xmlns="http://www.w3.org/2000/svg">
<path d="M132.595 86.5873L148.658 40.1545L115.527 15.8086L66.8643 31.9717M132.595 86.5873L89.4246 101.145M132.595 86.5873L160.956 125.49M89.4246 101.145H1.32779M89.4246 101.145L66.8643 31.9717M89.4246 101.145L55.7922 148.581M1.32779 101.145L-42.0932 86.3363M1.32779 101.145L24.1677 31.9717M1.32779 101.145L33.9563 148.581M-42.0932 86.3363L-57.6544 39.4015L-24.775 15.3066L24.1677 31.9717M-42.0932 86.3363L-70.4548 124.737M24.1677 31.9717L45.2507 39.1505L66.8643 31.9717" stroke="#ED3E2E" stroke-width="0.796238"/>
<path d="M26.9285 223.879L44.7486 229.652L62.8198 223.879M26.9285 223.879L44.7486 237.182L62.8198 223.879M26.9285 223.879L27.5512 222.123M62.8198 223.879L62.1971 222.123M55.7921 148.583V204.051L62.1971 222.123M33.9561 148.583V204.051L27.5512 222.123M27.8859 157.368V188.239M27.5512 222.123L27.6702 210.075M62.1971 222.123V210.075M62.1971 157.619V188.239M62.1971 188.239L67.9828 205.808M62.1971 188.239V210.075M27.8859 188.239L21.7823 205.808M27.8859 188.239L27.6702 210.075M21.7823 205.808L16.6379 220.617V231.158L26.9285 234.923L25.1715 226.64L44.7486 240.947L64.3257 226.64L62.5688 235.174L72.8593 231.66V220.617L67.9828 205.808M21.7823 205.808L27.6702 210.075M67.9828 205.808L62.1971 210.075" stroke="#FFFDF6" stroke-width="0.796238"/>
<path d="M172 157.618L161.458 189.995M172 157.618L149.662 188.74M172 157.618L160.455 125.24M156.69 235.424L151.168 254.248L116.532 265.292M156.69 235.424L116.532 265.292M156.69 235.424L161.208 220.867L161.458 189.995M116.532 265.292L154.431 211.831L161.458 189.995M116.532 265.292L149.913 160.379M149.913 160.379L149.662 188.74M149.913 160.379V158.12M149.662 188.74L122.988 226.89M106.492 250.483L122.988 226.89M122.988 226.89L89.6759 226.639" stroke="#FFFDF6" stroke-width="0.796238"/>
<path d="M105.855 162.005L105.987 162.052L106.12 162.007L131.619 153.198L114.13 167.507H98.1018L80.6187 152.976L105.855 162.005Z" stroke="#FFFDF6" stroke-width="0.796238"/>
<path d="M79.1336 158.368H71.855L73.6119 150.085L104.985 125.488L160.705 125.739M160.705 125.739L129.582 147.575M160.705 125.739L135.606 161.38M129.582 147.575L127.323 152.595L79.1336 152.093L104.985 132.265L122.053 137.787L129.582 147.575Z" stroke="#FFFDF6" stroke-width="0.796238"/>
<path d="M104.484 189.491L62.0669 157.616L78.3811 134.525M78.3811 134.525L133.348 116.454L160.454 125.74L133.348 104.908L72.1064 124.987L78.3811 134.525Z" stroke="#FFFDF6" stroke-width="0.796238"/>
<path d="M150.414 158.37L135.355 146.824" stroke="#FFFDF6" stroke-width="0.796238"/>
<path d="M-15.8569 161.757L-15.9887 161.804L-16.121 161.759L-41.6206 152.95L-24.1315 167.259H-8.10324L9.37984 152.727L-15.8569 161.757Z" stroke="#FFFDF6" stroke-width="0.796238"/>
<path d="M10.8656 158.119H18.1443L16.3874 149.836L-14.9861 125.239L-70.7055 125.49M-70.7055 125.49L-39.583 147.326M-70.7055 125.49L-45.6067 161.131M-39.583 147.326L-37.3241 152.346L10.8656 151.844L-14.9861 132.016L-32.0533 137.538L-39.583 147.326Z" stroke="#FFFDF6" stroke-width="0.796238"/>
<path d="M-14.4846 189.242L27.9324 157.367L11.6181 134.276M11.6181 134.276L-43.3483 116.205L-70.455 125.491L-43.3483 104.659L17.8928 124.738L11.6181 134.276Z" stroke="#FFFDF6" stroke-width="0.796238"/>
<path d="M62.8198 189.743L89.4246 273.824M89.4246 273.824L106.241 250.482M89.4246 273.824L117.284 264.789M106.241 250.482L76.6242 208.065M106.241 250.482L117.284 264.789M117.284 264.789L97.9582 327.536" stroke="#FFFDF6" stroke-width="0.796238"/>
<path d="M27.9326 187.483L-0.178056 273.572M-0.178056 273.572L-16.9943 250.23M-0.178056 273.572L-27.7868 265.039M-16.9943 250.23L13.1243 207.813M-16.9943 250.23L-27.7868 265.039M-27.7868 265.039L-8.71165 327.786" stroke="#FFFDF6" stroke-width="0.796238"/>
<path d="M116.532 143.81C116.532 149.632 111.812 154.352 105.99 154.352C100.168 154.352 95.4487 149.632 95.4487 143.81C95.4487 137.988 100.168 133.269 105.99 133.269C111.812 133.269 116.532 137.988 116.532 143.81Z" stroke="#FFFDF6" stroke-width="0.796238"/>
<path d="M89.1738 274.075L65.0789 292.648L56.7963 292.598M89.1738 274.075L55.7924 263.031M89.1738 274.075H68.8437L63.071 271.565L44.7489 278.091L26.1758 271.565L20.403 274.075L0.072998 273.824M55.7924 263.031L44.7489 267.047L33.4544 263.031M55.7924 263.031L62.569 283.612L56.7963 292.598M33.4544 263.031L0.072998 273.824M33.4544 263.031L26.6777 283.612L32.4505 292.45M0.072998 273.824L23.6659 292.397L32.4505 292.45M32.4505 292.45L56.7963 292.598" stroke="#FFFDF6" stroke-width="0.796238"/>
<path d="M19.6502 303.945H-0.428899L-6.95459 313.232L-1.93483 333.06L10.6146 342.821M19.6502 303.945L5.59482 324.526L10.6146 342.821M19.6502 303.945H69.5968M10.6146 342.821L16.1363 347.115H21.6581M78.0328 342.821L72.3577 347.115H67.3379M78.0328 342.821L90.9308 333.06L95.9505 313.232L89.6758 303.945H69.5968M78.0328 342.821L83.4011 324.526L69.5968 303.945M36.9683 347.115L44.498 336.072L51.5256 347.115M36.9683 347.115H51.5256M36.9683 347.115H31.1956M51.5256 347.115H57.5494M57.5494 347.115L44.498 336.574L31.1956 347.115M57.5494 347.115H67.3379M31.1956 347.115H21.6581M21.6581 347.115L16.1363 328.04L27.1798 313.232L44.498 307.208L61.8162 313.232L73.1106 328.04L67.3379 347.115" stroke="#FFFDF6" stroke-width="0.796238"/>
<path d="M-70.9565 125.239V48.9387L-5.44863 1H95.9506L161.208 49.1897L160.957 125.741" stroke="#FFFDF6" stroke-width="0.796238"/>
<path d="M151.168 254.5L145.396 273.324L118.038 312.729L90.9312 333.31" stroke="#FFFDF6" stroke-width="0.796238"/>
<path d="M89.4253 274.074L103.481 285.118L89.9272 304.193L58.5537 292.647" stroke="#FFFDF6" stroke-width="0.796238"/>
<path d="M-0.177583 273.825L-13.9819 284.618L-1.18154 303.944L31.4469 292.398" stroke="#FFFDF6" stroke-width="0.796238"/>
<path d="M62.5688 158.12L83.1499 187.988L72.6084 219.863" stroke="#FFFDF6" stroke-width="0.796238"/>
<path d="M27.4309 157.617L6.59888 187.485L16.8894 220.113" stroke="#FFFDF6" stroke-width="0.796238"/>
<path d="M33.7058 233.166V263.034L41.7374 238.939" stroke="#FFFDF6" stroke-width="0.796238"/>
<path d="M55.5424 232.914V262.782L47.7617 238.938" stroke="#FFFDF6" stroke-width="0.796238"/>
<path d="M27.1802 235.175L0.324463 272.572" stroke="#FFFDF6" stroke-width="0.796238"/>
<path d="M62.8208 235.426L89.4255 273.576" stroke="#FFFDF6" stroke-width="0.796238"/>
</svg>
