<svg width="232" height="315" viewBox="0 0 232 315" fill="none" xmlns="http://www.w3.org/2000/svg">
<path d="M195.063 78.3984L209.59 36.408L179.629 14.3914L135.622 29.0081M195.063 78.3984L156.024 91.5629M195.063 78.3984L220.712 113.58M156.024 91.5629H76.3555M156.024 91.5629L135.622 29.0081M156.024 91.5629L125.609 134.461M76.3555 91.5629L37.0888 78.1714M76.3555 91.5629L97.0102 29.0081M76.3555 91.5629L105.862 134.461M37.0888 78.1714L23.0164 35.7271L52.7501 13.9375L97.0102 29.0081M37.0888 78.1714L11.4407 112.899M97.0102 29.0081L116.076 35.5001L135.622 29.0081" stroke="#66666A" stroke-width="0.720059"/>
<path d="M99.507 202.555L115.622 207.776L131.964 202.555M99.507 202.555L115.622 214.585L131.964 202.555M99.507 202.555L100.07 200.967M131.964 202.555L131.401 200.967M125.609 134.463V184.624L131.401 200.967M105.862 134.463V184.624L100.07 200.967M100.373 142.407V170.325M100.07 200.967L100.178 190.072M131.401 200.967V190.072M131.401 142.634V170.325M131.401 170.325L136.633 186.213M131.401 170.325V190.072M100.373 170.325L94.8533 186.213M100.373 170.325L100.178 190.072M94.8533 186.213L90.201 199.605V209.138L99.507 212.542L97.9182 205.052L115.622 217.99L133.326 205.052L131.737 212.769L141.043 209.592V199.605L136.633 186.213M94.8533 186.213L100.178 190.072M136.633 186.213L131.401 190.072" stroke="#66666A" stroke-width="0.720059"/>
<path d="M1 141.952L10.079 171.459M1 141.952L20.7468 170.324M1 141.952L11.4408 112.899M14.3915 212.541L19.385 229.565L50.2536 239.778M14.3915 212.541L50.2536 239.778M14.3915 212.541L10.306 198.923L10.079 171.459M50.2536 239.778L16.8882 191.66L10.079 171.459M50.2536 239.778L20.5198 144.676M20.5198 144.676L20.7468 170.324M20.5198 144.676V142.633M20.7468 170.324L44.8689 204.824M59.7865 226.16L44.8689 204.824M44.8689 204.824H74.7669" stroke="#66666A" stroke-width="0.720059"/>
<path d="M230.699 142.633L221.166 171.913M230.699 142.633L210.498 170.778M230.699 142.633L220.258 113.354M216.853 212.996L211.86 230.019L180.537 240.006M216.853 212.996L180.537 240.006M216.853 212.996L220.939 199.831L221.166 171.913M180.537 240.006L214.81 191.66L221.166 171.913M180.537 240.006L210.725 145.13M210.725 145.13L210.498 170.778M210.725 145.13V143.087M210.498 170.778L186.376 205.278M171.458 226.614L186.376 205.278M186.376 205.278L156.251 205.051" stroke="#66666A" stroke-width="0.720059"/>
<path d="M170.883 146.601L171.002 146.644L171.122 146.602L194.181 138.636L178.366 151.577H163.871L148.06 138.435L170.883 146.601Z" stroke="#66666A" stroke-width="0.720059"/>
<path d="M146.718 143.312H140.135L141.724 135.822L170.096 113.578L220.484 113.805M220.484 113.805L192.339 133.552M220.484 113.805L197.787 146.036M192.339 133.552L190.297 138.091L146.718 137.637L170.096 119.706L185.53 124.7L192.339 133.552Z" stroke="#66666A" stroke-width="0.720059"/>
<path d="M169.642 171.457L131.283 142.632L146.037 121.75M146.037 121.75L195.744 105.408L220.258 113.806L195.744 94.9668L140.362 113.125L146.037 121.75Z" stroke="#66666A" stroke-width="0.720059"/>
<path d="M211.178 143.313L197.56 132.872" stroke="#66666A" stroke-width="0.720059"/>
<path d="M60.8153 146.378L60.6961 146.42L60.5765 146.379L37.5166 138.413L53.3324 151.353H67.8272L83.6376 138.212L60.8153 146.378Z" stroke="#66666A" stroke-width="0.720059"/>
<path d="M84.9808 143.087H91.5631L89.9743 135.597L61.6024 113.354L11.214 113.58M11.214 113.58L39.3589 133.327M11.214 113.58L33.9115 145.811M39.3589 133.327L41.4016 137.867L84.9808 137.413L61.6024 119.482L46.1681 124.475L39.3589 133.327Z" stroke="#66666A" stroke-width="0.720059"/>
<path d="M62.0561 171.233L100.415 142.407L85.6615 121.525M85.6615 121.525L35.954 105.183L11.4407 113.581L35.954 94.7422L91.3359 112.9L85.6615 121.525Z" stroke="#66666A" stroke-width="0.720059"/>
<path d="M20.5198 143.087L34.1383 132.646" stroke="#66666A" stroke-width="0.720059"/>
<path d="M131.964 171.686L156.024 247.722M156.024 247.722L171.231 226.613M156.024 247.722L181.218 239.551M171.231 226.613L144.448 188.255M171.231 226.613L181.218 239.551M181.218 239.551L163.741 296.295" stroke="#66666A" stroke-width="0.720059"/>
<path d="M100.415 169.642L74.9936 247.494M74.9936 247.494L59.7863 226.385M74.9936 247.494L50.0264 239.777M59.7863 226.385L87.0233 188.027M59.7863 226.385L50.0264 239.777M50.0264 239.777L67.2765 296.521" stroke="#66666A" stroke-width="0.720059"/>
<path d="M180.537 130.147C180.537 135.412 176.269 139.68 171.005 139.68C165.74 139.68 161.472 135.412 161.472 130.147C161.472 124.882 165.74 120.614 171.005 120.614C176.269 120.614 180.537 124.882 180.537 130.147Z" stroke="#66666A" stroke-width="0.720059"/>
<path d="M70.6815 129.695C70.6815 134.96 66.4135 139.228 61.1485 139.228C55.8836 139.228 51.6156 134.96 51.6156 129.695C51.6156 124.43 55.8836 120.162 61.1485 120.162C66.4135 120.162 70.6815 124.43 70.6815 129.695Z" stroke="#66666A" stroke-width="0.720059"/>
<path d="M155.797 247.948L134.007 264.744L126.517 264.699M155.797 247.948L125.609 237.961M155.797 247.948H137.412L132.191 245.678L115.622 251.579L98.8261 245.678L93.6057 247.948L75.2207 247.721M125.609 237.961L115.622 241.593L105.408 237.961M125.609 237.961L131.737 256.573L126.517 264.699M105.408 237.961L75.2207 247.721M105.408 237.961L99.28 256.573L104.5 264.565M75.2207 247.721L96.5563 264.517L104.5 264.565M104.5 264.565L126.517 264.699" stroke="#66666A" stroke-width="0.720059"/>
<path d="M92.9248 274.961H74.7668L68.8655 283.359L73.405 301.29L84.7537 310.117M92.9248 274.961L80.2142 293.573L84.7537 310.117M92.9248 274.961H138.093M84.7537 310.117L89.7472 314.001H94.7406M145.722 310.117L140.59 314.001H136.05M145.722 310.117L157.386 301.29L161.925 283.359L156.251 274.961H138.093M145.722 310.117L150.576 293.573L138.093 274.961M108.586 314.001L115.395 304.014L121.751 314.001M108.586 314.001H121.751M108.586 314.001H103.366M121.751 314.001H127.198M127.198 314.001L115.395 304.468L103.366 314.001M127.198 314.001H136.05M103.366 314.001H94.7406M94.7406 314.001L89.7472 296.751L99.7341 283.359L115.395 277.912L131.057 283.359L141.27 296.751L136.05 314.001" stroke="#66666A" stroke-width="0.720059"/>
<path d="M10.9867 113.353V44.3522L70.2272 1H161.925L220.939 44.5792L220.712 113.807" stroke="#66666A" stroke-width="0.720059"/>
<path d="M19.6119 230.019L24.3784 246.361L49.1187 282.45L73.405 301.289" stroke="#66666A" stroke-width="0.720059"/>
<path d="M211.86 230.246L206.639 247.269L181.899 282.904L157.386 301.516" stroke="#66666A" stroke-width="0.720059"/>
<path d="M156.024 247.948L168.735 257.935L156.478 275.185L128.106 264.744" stroke="#66666A" stroke-width="0.720059"/>
<path d="M74.9939 247.724L62.5103 257.484L74.086 274.961L103.593 264.52" stroke="#66666A" stroke-width="0.720059"/>
<path d="M131.737 143.088L150.349 170.098L140.816 198.924" stroke="#66666A" stroke-width="0.720059"/>
<path d="M99.9611 142.633L81.1222 169.643L90.4282 199.15" stroke="#66666A" stroke-width="0.720059"/>
<path d="M105.636 210.952V237.962L112.899 216.173" stroke="#66666A" stroke-width="0.720059"/>
<path d="M125.383 210.725V237.735L118.347 216.172" stroke="#66666A" stroke-width="0.720059"/>
<path d="M99.7346 212.769L75.4482 246.588" stroke="#66666A" stroke-width="0.720059"/>
<path d="M131.965 212.995L156.024 247.495" stroke="#66666A" stroke-width="0.720059"/>

</svg>
